<svg width="38" height="38" viewBox="0 0 38 38" fill="none" xmlns="http://www.w3.org/2000/svg">
<path d="M18.9999 0C8.52313 0 0 8.52339 0 19C0 29.4766 8.52334 38 18.9999 38C29.4767 38 38 29.4766 38 19C38 8.52339 29.4764 0 18.9999 0ZM28.8077 16.761L19.1265 26.4422C18.5868 26.9818 17.8695 27.2789 17.1065 27.2789C16.343 27.2789 15.6257 26.9816 15.0862 26.442L9.19233 20.5478C8.61592 19.9718 8.29834 19.2053 8.29834 18.3902C8.29834 17.575 8.61571 16.8087 9.19233 16.2323C9.76854 15.6559 10.5351 15.3383 11.3502 15.3383C12.1653 15.3383 12.9317 15.6557 13.5081 16.2323L17.1067 19.8307L24.4923 12.4452C25.0685 11.8688 25.8351 11.5512 26.65 11.5512C27.4651 11.5512 28.2315 11.8686 28.8079 12.4452C29.3843 13.0212 29.7019 13.7877 29.7019 14.6031C29.7015 15.4182 29.3841 16.1847 28.8077 16.761Z" fill="#E941F5"/>
</svg>
