<svg width="71" height="74" viewBox="0 0 71 74" fill="none" xmlns="http://www.w3.org/2000/svg">
<g clip-path="url(#clip0)">
<path d="M40.8504 47.8756H26.1505C25.5717 47.8756 25.1006 47.4782 25.1006 46.9905V38.3131H40.8504V40.4381H36.6504C36.0706 40.4381 35.6003 40.9138 35.6003 41.5005V44.6879C35.6003 45.2753 36.0706 45.7504 36.6504 45.7504H40.8504V47.8756ZM26.0193 35.1257H38.7504V36.1883H25.1006C25.1006 36.157 25.0855 36.1305 25.0829 36.0998C25.0855 36.0691 25.1006 36.0429 25.1006 36.0113C25.1006 35.5233 25.5128 35.1257 26.0193 35.1257ZM37.7005 42.5631H41.9005V43.6255H37.7005V42.5631ZM42.9504 40.4381V37.2507C42.9504 36.664 42.4804 36.1883 41.9005 36.1883H40.8506V34.0633C40.8506 33.4765 40.3805 33.0009 39.8005 33.0009H26.0195C24.3548 33.0009 23.0008 34.3512 23.0008 36.0113C23.0008 36.0429 23.0158 36.0691 23.0184 36.0998C23.0158 36.1305 23.0008 36.157 23.0008 36.1883V46.9905C23.0008 48.6506 24.4136 50.0006 26.1507 50.0006H41.9005C42.4804 50.0006 42.9504 49.5253 42.9504 48.938V45.7506C43.5305 45.7506 44.0006 45.2755 44.0006 44.6881V41.5007C44.0006 40.914 43.5305 40.4381 42.9504 40.4381Z" fill="#8949C3"/>
</g>
<path d="M62.3441 37.4193C63.63 53.7179 51.4598 67.973 35.1612 69.2589" stroke="#FCB932" stroke-width="3" stroke-linecap="round" stroke-linejoin="round"/>
<path d="M3.25587 36.0627C4.2244 19.7421 18.24 7.29684 34.5605 8.26537C50.8811 9.2339 63.3263 23.2495 62.3578 39.57" stroke="#FCB932" stroke-width="3" stroke-linecap="round" stroke-linejoin="round"/>
<circle cx="33.5" cy="69.5" r="2.5" fill="#FCB932"/>
<defs>
<clipPath id="clip0">
<rect width="21" height="17" fill="white" transform="translate(23 33)"/>
</clipPath>
</defs>
</svg>
