<svg width="71" height="74" viewBox="0 0 71 74" fill="none" xmlns="http://www.w3.org/2000/svg">
<path d="M62.344 37.4193C63.6299 53.7179 51.4597 67.973 35.1611 69.2589" stroke="#FCB932" stroke-width="3" stroke-linecap="round" stroke-linejoin="round"/>
<path d="M3.25619 36.0627C4.22472 19.7422 18.2403 7.2969 34.5608 8.26543C50.8814 9.23396 63.3267 23.2495 62.3581 39.5701" stroke="#FCB932" stroke-width="3" stroke-linecap="round" stroke-linejoin="round"/>
<circle cx="35.5" cy="69.5" r="2.5" fill="#FCB932"/>
<path d="M27.1479 48C26.8959 48 26.6457 47.9215 26.4321 47.7674C26.0343 47.4796 25.8485 46.985 25.9567 46.5077L27.4364 40.0021L22.4183 35.6097C22.0495 35.2883 21.9086 34.7793 22.06 34.3135C22.2114 33.8487 22.6235 33.5196 23.1113 33.4746L29.7508 32.8729L32.3758 26.7414C32.5694 26.2909 33.0102 26 33.4999 26C33.9897 26 34.4305 26.2909 34.6241 26.7404L37.2491 32.8729L43.8875 33.4746C44.3764 33.5185 44.7884 33.8487 44.9398 34.3135C45.0913 34.7784 44.9512 35.2883 44.5824 35.6097L39.5644 40.0012L41.044 46.5067C41.1524 46.985 40.9664 47.4796 40.5688 47.7665C40.172 48.0534 39.643 48.0755 39.2251 47.8248L33.4999 44.4099L27.7747 47.8268C27.5811 47.9415 27.3655 48 27.1479 48ZM33.4999 42.9388C33.7175 42.9388 33.933 42.9972 34.1267 43.1119L39.53 46.3375L38.1335 40.1972C38.0338 39.7602 38.1824 39.3039 38.5208 39.0083L43.2589 34.8607L36.9902 34.2925C36.5389 34.2514 36.1507 33.9681 35.9744 33.553L33.4999 27.7667L31.0225 33.5539C30.8481 33.9662 30.4599 34.2494 30.0096 34.2906L23.7401 34.8588L28.478 39.0064C28.8174 39.3029 28.9659 39.7583 28.8653 40.1963L27.4699 46.3364L32.8731 43.1119C33.0667 42.9972 33.2823 42.9388 33.4999 42.9388ZM29.7001 32.9915C29.7001 32.9915 29.7001 32.9925 29.699 32.9934L29.7001 32.9915ZM37.2978 32.9887L37.2989 32.9906C37.2989 32.9896 37.2989 32.9896 37.2978 32.9887Z" fill="#7429B8"/>
</svg>
