<svg width="71" height="74" viewBox="0 0 71 74" fill="none" xmlns="http://www.w3.org/2000/svg">
<path d="M62.344 37.4193C63.6299 53.7179 51.4597 67.973 35.1611 69.2589" stroke="#FCB932" stroke-width="3" stroke-linecap="round" stroke-linejoin="round"/>
<path d="M3.2557 36.0627C4.22423 19.7421 18.2398 7.29684 34.5604 8.26537C50.8809 9.2339 63.3262 23.2495 62.3577 39.57" stroke="#FCB932" stroke-width="3" stroke-linecap="round" stroke-linejoin="round"/>
<g clip-path="url(#clip0)">
<path d="M19.8086 36.3424C16.9647 36.3424 14.6509 38.6561 14.6509 41.4999C14.6509 44.3438 16.9645 46.6575 19.8086 46.6575C22.6524 46.6575 24.9661 44.3438 24.9661 41.4999C24.9661 38.6561 22.6524 36.3424 19.8086 36.3424ZM19.8086 44.3506C18.2368 44.3506 16.9579 43.0718 16.9579 41.5C16.9579 39.9282 18.2367 38.6494 19.8086 38.6494C21.3804 38.6494 22.6591 39.9282 22.6591 41.5C22.6591 43.0718 21.3804 44.3506 19.8086 44.3506Z" fill="#FCB932"/>
<path d="M41.1911 32.6913C39.2287 32.6913 37.4144 33.3365 35.9485 34.4256H31.6533V34.2763C31.6533 33.6393 31.1368 33.1229 30.4998 33.1229C29.8628 33.1229 29.3463 33.6393 29.3463 34.2763V34.4256H25.0511C23.5853 33.3365 21.7709 32.6913 19.8086 32.6913C14.9514 32.6913 10.9998 36.6429 10.9998 41.5C10.9998 46.3571 14.9514 50.3087 19.8085 50.3087C24.3869 50.3087 28.16 46.7976 28.5781 42.3267H32.4214C32.8396 46.7976 36.6127 50.3087 41.191 50.3087C46.0481 50.3087 49.9998 46.3571 49.9998 41.5C49.9998 36.6429 46.0482 32.6913 41.1911 32.6913ZM19.8085 48.0017C16.2234 48.0017 13.3068 45.085 13.3068 41.5C13.3068 37.9149 16.2235 34.9982 19.8085 34.9982C23.3936 34.9982 26.3103 37.9149 26.3103 41.5C26.3103 45.085 23.3936 48.0017 19.8085 48.0017ZM32.5074 40.0197H28.4922C28.2893 38.8256 27.8457 37.7125 27.2124 36.7326H33.7872C33.154 37.7125 32.7103 38.8256 32.5074 40.0197ZM41.1911 48.0017C37.606 48.0017 34.6893 45.085 34.6893 41.5C34.6893 37.9149 37.606 34.9982 41.1911 34.9982C44.7761 34.9982 47.6928 37.9149 47.6928 41.5C47.6929 45.085 44.7761 48.0017 41.1911 48.0017Z" fill="#8949C3"/>
<path d="M41.1912 36.3424C38.3473 36.3424 36.0337 38.6561 36.0337 41.4999C36.0337 44.3438 38.3473 46.6575 41.1912 46.6575C44.0351 46.6575 46.3488 44.3438 46.3488 41.4999C46.3488 38.6561 44.0351 36.3424 41.1912 36.3424ZM41.1912 44.3505C39.6194 44.3505 38.3406 43.0718 38.3406 41.4999C38.3406 39.9281 39.6194 38.6494 41.1912 38.6494C42.763 38.6494 44.0418 39.9281 44.0418 41.4999C44.0418 43.0718 42.763 44.3505 41.1912 44.3505Z" fill="#FCB932"/>
</g>
<defs>
<clipPath id="clip0">
<rect width="39" height="39" fill="white" transform="translate(10.9998 22)"/>
</clipPath>
</defs>
</svg>
