<svg width="71" height="74" viewBox="0 0 71 74" fill="none" xmlns="http://www.w3.org/2000/svg">
<path d="M62.3441 37.4193C63.63 53.7179 51.4599 67.973 35.1612 69.2589" stroke="#FCB932" stroke-width="3" stroke-linecap="round" stroke-linejoin="round"/>
<path d="M3.25587 36.0627C4.2244 19.7421 18.24 7.29684 34.5605 8.26537C50.8811 9.2339 63.3263 23.2495 62.3578 39.57" stroke="#FCB932" stroke-width="3" stroke-linecap="round" stroke-linejoin="round"/>
<g clip-path="url(#clip0)">
<path d="M24.2002 46.8882V39.7599L32.7618 41.5865C32.8403 41.6029 32.9208 41.6112 33.0003 41.6112C33.0798 41.6112 33.1604 41.603 33.2388 41.5865L41.8004 39.7599V46.8882H24.2003H24.2002ZM29.7003 35.2779H41.8004V37.598L33.0003 39.4739L24.2003 37.598V35.2779H29.7004H29.7003ZM30.8003 32.1117H35.2003V33.1671H30.8003V32.1117ZM42.9003 33.1671H37.4004V31.0563C37.4004 30.4733 36.9084 30 36.3004 30H29.7004C29.0925 30 28.6004 30.4733 28.6004 31.0563V33.1671H23.1004C22.4924 33.1671 22.0004 33.6395 22.0004 34.2225V47.9445C22.0004 48.5275 22.4924 48.9999 23.1004 48.9999H42.9005C43.5085 48.9999 44.0004 48.5275 44.0004 47.9445V34.2225C44.0004 33.6395 43.5085 33.1671 42.9005 33.1671H42.9003Z" fill="#7429B8"/>
</g>
<circle cx="35.5" cy="69.5" r="2.5" fill="#FCB932"/>
<defs>
<clipPath id="clip0">
<rect width="22" height="19" fill="white" transform="translate(22 30)"/>
</clipPath>
</defs>
</svg>
