<svg width="50" height="50" viewBox="0 0 50 50" fill="none" xmlns="http://www.w3.org/2000/svg">
<path d="M44.7892 29.4358L36.8084 16.6667L44.865 3.775C45.0259 3.5175 45.0342 3.19417 44.8875 2.92917C44.74 2.66417 44.4617 2.5 44.1584 2.5H6.65837V0.833333C6.65837 0.3725 6.28587 0 5.82503 0C5.3642 0 4.9917 0.3725 4.9917 0.833333V3.33333V27.5V30V49.1667C4.9917 49.6275 5.3642 50 5.82503 50C6.28587 50 6.65837 49.6275 6.65837 49.1667V30.8333H44.1584C44.165 30.8342 44.1717 30.8333 44.175 30.8333C44.6359 30.8333 45.0084 30.4608 45.0084 30C45.0084 29.7825 44.925 29.585 44.7892 29.4358Z" fill="white"/>
</svg>
