<svg width="50" height="48" viewBox="0 0 50 48" fill="none" xmlns="http://www.w3.org/2000/svg">
<circle cx="6" cy="6" r="6" fill="#7429B8"/>
<g clip-path="url(#clip0)">
<path d="M39.4907 27.4144C38.9825 23.2684 35.7104 20.0044 31.563 19.5068C31.2059 19.466 30.8469 19.4456 30.4874 19.4456C26.8222 19.4512 23.5219 21.6663 22.1282 25.0561C20.7344 28.446 21.5221 32.3419 24.1233 34.9241C25.5066 36.2488 26.2988 38.0743 26.3214 39.9895V41.0356H34.6785V39.9841C34.6848 38.1052 35.4492 36.3083 36.7985 35.0006C38.8364 33.0344 39.8332 30.2257 39.4906 27.4147V27.4144H39.4907Z" fill="white"/>
<path d="M30.5002 48.0001C31.3853 47.9991 32.174 47.4413 32.4701 46.6072H28.5303C28.8263 47.4413 29.615 47.9991 30.5002 48.0001Z" fill="white"/>
<path d="M27.0178 44.518C27.0184 44.9025 27.3298 45.2139 27.7143 45.2145H33.2857C33.6701 45.2139 33.9816 44.9025 33.9821 44.518V42.4287H27.0178V44.518Z" fill="white"/>
<path d="M30.5001 15.2679C31.2693 15.2679 31.8929 14.6443 31.8929 13.875V10.3929C31.8929 9.62362 31.2693 9 30.5001 9C29.7308 9 29.1072 9.62362 29.1072 10.3929V13.875C29.1072 14.6443 29.7308 15.2679 30.5001 15.2679Z" fill="white"/>
<path d="M18.7451 18.715C19.2963 19.2414 20.1639 19.2414 20.715 18.715C20.9763 18.4538 21.1231 18.0994 21.1231 17.73C21.1231 17.3605 20.9763 17.0062 20.715 16.745L18.2526 14.2831C17.9915 14.0218 17.6372 13.875 17.2679 13.875C16.8985 13.875 16.5442 14.0218 16.2831 14.2831C16.0218 14.5442 15.875 14.8984 15.875 15.2679C15.875 15.6373 16.0218 15.9915 16.2831 16.2527L18.7451 18.715Z" fill="white"/>
<path d="M17.2679 28.5001C17.2679 27.7308 16.6443 27.1072 15.875 27.1072H12.3929C11.6239 27.1079 11.0008 27.7311 11 28.5001C11.0008 29.269 11.6239 29.8922 12.3929 29.8929H15.875C16.6443 29.8929 17.2679 29.2693 17.2679 28.5001Z" fill="white"/>
<path d="M20.0915 37.9223C19.6101 37.7936 19.0967 37.9319 18.745 38.2849L16.2831 40.7473C16.0218 41.0084 15.875 41.3626 15.875 41.7321C15.875 42.1015 16.0218 42.4557 16.2831 42.7169C16.8341 43.2433 17.7016 43.2433 18.2526 42.7169L20.715 40.255C21.0679 39.9033 21.2063 39.3899 21.0776 38.9085C20.949 38.4271 20.5729 38.0509 20.0915 37.9223Z" fill="white"/>
<path d="M42.2551 38.2852C41.9034 37.9322 41.39 37.7938 40.9086 37.9225C40.4272 38.0512 40.0512 38.4271 39.9225 38.9085C39.7939 39.39 39.9321 39.9033 40.2852 40.255L42.7475 42.717C43.2985 43.2434 44.1661 43.2434 44.7171 42.717C44.9784 42.4559 45.1251 42.1016 45.1251 41.7322C45.1251 41.3627 44.9784 41.0085 44.7171 40.7473L42.2551 38.2852Z" fill="white"/>
<path d="M48.6072 27.1072H45.1251C44.3558 27.1072 43.7322 27.7308 43.7322 28.5001C43.7322 29.2693 44.3558 29.8929 45.1251 29.8929H48.6072C49.3764 29.8929 50.0001 29.2693 50.0001 28.5001C50.0001 27.7308 49.3764 27.1072 48.6072 27.1072Z" fill="white"/>
<path d="M42.2548 18.7149L44.7167 16.2526C45.0686 15.9008 45.206 15.388 45.0772 14.9073C44.9484 14.4267 44.573 14.0513 44.0924 13.9225C43.6117 13.7937 43.0989 13.9311 42.7471 14.2829L40.2848 16.7449C40.0235 17.0061 39.8767 17.3604 39.8767 17.7299C39.8767 18.0993 40.0235 18.4537 40.2848 18.7149C40.836 19.2414 41.7037 19.2414 42.2548 18.7149Z" fill="white"/>
</g>
<defs>
<clipPath id="clip0">
<rect width="39" height="39" fill="white" transform="translate(11 9)"/>
</clipPath>
</defs>
</svg>
