<svg width="45" height="50" viewBox="0 0 45 50" fill="none" xmlns="http://www.w3.org/2000/svg">
<path d="M18.0001 8.30762C12.6564 8.30762 8.30786 12.6561 8.30786 17.9999C8.30786 23.3436 12.6564 27.6921 18.0001 27.6921C23.3439 27.6921 27.6924 23.3436 27.6924 17.9999C27.6924 12.6561 23.3439 8.30762 18.0001 8.30762ZM21.7482 17.5942L17.5944 21.748C17.324 22.0185 16.9697 22.1537 16.6155 22.1537C16.2613 22.1537 15.907 22.0185 15.6366 21.748L13.5597 19.6711C13.0188 19.1303 13.0188 18.254 13.5597 17.7132C14.1005 17.1723 14.9768 17.1723 15.5176 17.7132L16.6155 18.8112L19.7904 15.6362C20.3312 15.0954 21.2075 15.0954 21.7483 15.6362C22.2892 16.1771 22.2892 17.0533 21.7482 17.5942Z" fill="white"/>
<path d="M17.9999 0C8.07503 0 0 8.07503 0 17.9999C0 27.9248 8.07503 35.9998 17.9999 35.9998C27.9248 35.9998 35.9998 27.9248 35.9998 17.9999C35.9998 8.07503 27.9248 0 17.9999 0ZM17.9999 30.4614C11.1283 30.4614 5.53843 24.8715 5.53843 17.9999C5.53843 11.1283 11.1283 5.53843 17.9999 5.53843C24.8715 5.53843 30.4614 11.1283 30.4614 17.9999C30.4614 24.8715 24.8715 30.4614 17.9999 30.4614Z" fill="white"/>
<circle cx="39" cy="44" r="6" fill="#22B07D"/>
</svg>
