<svg width="43" height="39" viewBox="0 0 43 39" fill="none" xmlns="http://www.w3.org/2000/svg">
<circle cx="6" cy="33" r="6" fill="#FE1506"/>
<path d="M42.5923 4.61852C42.532 4.19304 42.2203 3.84305 41.7989 3.72802L28.2943 0.0394708C28.1018 -0.0131569 27.8984 -0.0131569 27.7057 0.0394708L14.2011 3.72802C13.7797 3.84305 13.468 4.1929 13.4077 4.61852C13.3294 5.17169 11.5424 18.2418 16.1257 24.7438C20.7036 31.238 27.457 32.9022 27.7422 32.9699C27.8269 32.9901 27.9133 33 28 33C28.0867 33 28.1731 32.9899 28.2578 32.9699C28.5432 32.9022 35.2965 31.238 39.8743 24.7438C44.4576 18.2419 42.6706 5.17183 42.5923 4.61852ZM36.7088 12.249L27.4972 21.2959C27.2829 21.5064 27.0018 21.6118 26.7208 21.6118C26.4399 21.6118 26.1588 21.5066 25.9444 21.2959L20.249 15.7023C20.043 15.5001 19.9274 15.2258 19.9274 14.9398C19.9274 14.6537 20.0432 14.3794 20.249 14.1772L21.3799 13.0666C21.8087 12.6456 22.504 12.6454 22.9327 13.0666L26.7208 16.787L34.0251 9.61313C34.231 9.41081 34.5103 9.29722 34.8015 9.29722C35.0927 9.29722 35.3721 9.41081 35.5779 9.61313L36.7088 10.7238C37.1376 11.1449 37.1376 11.8278 36.7088 12.249Z" fill="white"/>
</svg>
