<svg width="45" height="49" viewBox="0 0 45 49" fill="none" xmlns="http://www.w3.org/2000/svg">
<circle cx="39" cy="6" r="6" fill="#FB9B34"/>
<path d="M13.0079 22.5827C18.1394 22.5827 22.2992 18.4228 22.2992 13.2913C22.2992 8.15987 18.1394 4 13.0079 4C7.87643 4 3.71655 8.15987 3.71655 13.2913C3.71655 18.4228 7.87643 22.5827 13.0079 22.5827Z" fill="white"/>
<path d="M10.5145 41.4832C8.90807 38.2689 9.86415 33.9005 12.698 31.5387C14.0101 30.4567 15.6597 29.8685 17.3604 29.8765C19.1051 29.9187 20.8082 30.4183 22.2992 31.3254C23.4437 30.6477 24.7038 30.188 26.0157 29.9694V28.1576C26.0141 26.6795 25.4263 25.2625 24.3812 24.2174C23.336 23.1722 21.919 22.5844 20.4409 22.5828H5.5748C4.09676 22.5844 2.67972 23.1722 1.63459 24.2174C0.589455 25.2625 0.00159861 26.6795 0 28.1576V43.0237C0 43.5165 0.195782 43.9892 0.544274 44.3377C0.892767 44.6862 1.36542 44.882 1.85827 44.882H13.2402C12.1399 43.9171 11.2173 42.7668 10.5145 41.4832Z" fill="white"/>
<path d="M30.7117 32.9651C29.659 32.0857 26.7856 30.4486 22.2993 33.518C17.8121 30.4481 14.9392 32.0866 13.8869 32.9651C11.7262 34.7681 10.9602 38.2147 12.1769 40.6518C14.128 44.5542 21.5653 48.339 21.8807 48.4984C22.0104 48.5637 22.1536 48.5978 22.2988 48.5978C22.4441 48.5978 22.5873 48.5637 22.7169 48.4984C23.0324 48.339 30.4696 44.5537 32.4208 40.6518C33.6394 38.2161 32.8724 34.7681 30.7117 32.9651ZM27.8741 39.3069C27.5066 39.3069 27.1473 39.1979 26.8417 38.9938C26.5361 38.7896 26.2979 38.4993 26.1573 38.1598C26.0166 37.8202 25.9798 37.4466 26.0515 37.0861C26.1232 36.7257 26.3002 36.3945 26.5601 36.1347C26.82 35.8748 27.1511 35.6978 27.5116 35.6261C27.872 35.5544 28.2457 35.5912 28.5852 35.7318C28.9248 35.8725 29.215 36.1107 29.4192 36.4163C29.6234 36.7218 29.7324 37.0811 29.7324 37.4487C29.7324 37.9415 29.5366 38.4142 29.1881 38.7627C28.8396 39.1111 28.3669 39.3069 27.8741 39.3069Z" fill="white"/>
</svg>
