<svg width="71" height="74" viewBox="0 0 71 74" fill="none" xmlns="http://www.w3.org/2000/svg">
<g clip-path="url(#clip0)">
<path d="M43.8001 49.6835H25.8V33.9467L26.1517 34.286C26.386 34.5122 26.693 34.6253 27.0001 34.6253C27.3071 34.6253 27.6142 34.5122 27.8486 34.286C28.3173 33.8335 28.3173 33.1005 27.8486 32.648L25.4485 30.3314C25.4375 30.3208 25.4226 30.3177 25.4114 30.3075C25.3085 30.2152 25.1941 30.1342 25.0594 30.0802C25.0581 30.0797 25.0566 30.0798 25.0553 30.0793C25.0449 30.0752 25.0337 30.0754 25.0233 30.0716C24.8992 30.0264 24.7722 30.005 24.6444 30.0004C24.6036 29.9989 24.565 30.0037 24.5242 30.0063C24.4212 30.0126 24.3221 30.0312 24.2244 30.0627C24.1849 30.0753 24.1468 30.0858 24.1086 30.1025C23.9791 30.159 23.856 30.2305 23.7516 30.3314L21.3516 32.648C20.8828 33.1005 20.8828 33.8336 21.3516 34.286C21.8204 34.7384 22.5797 34.7384 23.0485 34.286L23.4 33.9467V50.8418C23.4 51.4821 23.9373 52.0001 24.6001 52.0001H43.8001C44.4629 52.0001 45 51.4821 45 50.8418C45 50.2015 44.4629 49.6835 43.8001 49.6835L43.8001 49.6835Z" fill="#8949C3"/>
<path d="M28.5517 45.869C28.786 46.0953 29.0931 46.2085 29.4001 46.2085C29.7072 46.2085 30.0142 46.0953 30.2486 45.869L33.1529 43.066L35.935 44.8555C36.2082 45.0309 36.5448 45.0919 36.8637 45.0218C37.1837 44.9528 37.46 44.7594 37.6294 44.4879L41.229 38.6964C41.5708 38.1477 41.3859 37.4362 40.8176 37.107C40.2494 36.7773 39.5128 36.9549 39.171 37.5041L36.2186 42.2539L33.6661 40.6114C33.1882 40.3054 32.5561 40.3654 32.1518 40.7562L28.5517 44.2311C28.083 44.6836 28.083 45.4166 28.5517 45.869H28.5517Z" fill="#FCB932"/>
</g>
<path d="M62.3441 37.4193C63.6301 53.7179 51.4599 67.973 35.1613 69.2589" stroke="#FCB932" stroke-width="3" stroke-linecap="round" stroke-linejoin="round"/>
<path d="M3.25589 36.0627C4.22441 19.7421 18.24 7.29684 34.5605 8.26537C50.8811 9.2339 63.3264 23.2495 62.3578 39.57" stroke="#FCB932" stroke-width="3" stroke-linecap="round" stroke-linejoin="round"/>
<circle cx="33.5" cy="69.5" r="2.5" fill="#FCB932"/>
<defs>
<clipPath id="clip0">
<rect width="24" height="22" fill="white" transform="translate(21 30)"/>
</clipPath>
</defs>
</svg>
