<svg width="56" height="56" viewBox="0 0 56 56" fill="none" xmlns="http://www.w3.org/2000/svg">
<g clip-path="url(#clip0)">
<path d="M36.9584 39.2462L39.5192 35.0908L44.1405 33.5147L44.6525 28.661L48.1294 25.2381L46.4763 20.6437L48.1294 16.0491L44.6526 12.6262L44.1406 7.77262L39.5193 6.19653L36.9585 2.04105L32.1148 2.62587L28.0002 0L23.8857 2.62609L19.0421 2.04127L16.4813 6.19664L11.86 7.77273L11.348 12.6264L7.87109 16.0492L9.52419 20.6438L7.87109 25.2383L11.3479 28.6611L11.8599 33.5148L16.4812 35.0909L19.042 39.2463L23.8857 38.6615L28.0002 41.2875L32.1148 38.6615L36.9584 39.2462ZM13.844 20.6438C13.844 12.838 20.1945 6.48747 28.0002 6.48747C35.806 6.48747 42.1565 12.838 42.1565 20.6438C42.1565 28.4495 35.806 34.8001 28.0002 34.8001C20.1945 34.8001 13.844 28.4495 13.844 20.6438Z" fill="white"/>
<path d="M27.9999 9.77075C22.0045 9.77075 17.127 14.6483 17.127 20.6437C17.127 26.6391 22.0045 31.5167 27.9999 31.5167C33.9953 31.5167 38.8729 26.6391 38.8729 20.6437C38.8729 14.6483 33.9953 9.77075 27.9999 9.77075Z" fill="white"/>
<path d="M23.1111 42.0621L17.3492 42.7577L14.305 37.8176L13.2701 37.4647L8.80615 51.4173L16.8425 50.9753L23.1299 56L26.8298 44.4355L23.1111 42.0621Z" fill="white"/>
<path d="M41.6953 37.8177L38.6509 42.7577L32.8892 42.0621L29.1704 44.4355L32.8703 56L39.1578 50.9753L47.1941 51.4173L42.7302 37.4647L41.6953 37.8177Z" fill="white"/>
</g>
<defs>
<clipPath id="clip0">
<rect width="56" height="56" fill="white"/>
</clipPath>
</defs>
</svg>
