<svg width="71" height="74" viewBox="0 0 71 74" fill="none" xmlns="http://www.w3.org/2000/svg">
<path d="M62.344 37.4193C63.6299 53.7179 51.4597 67.973 35.1611 69.2589" stroke="#FCB932" stroke-width="3" stroke-linecap="round" stroke-linejoin="round"/>
<path d="M3.2557 36.0627C4.22423 19.7422 18.2398 7.2969 34.5604 8.26543C50.8809 9.23396 63.3262 23.2495 62.3577 39.5701" stroke="#FCB932" stroke-width="3" stroke-linecap="round" stroke-linejoin="round"/>
<g clip-path="url(#clip0)">
<path d="M24.2003 46.8883V39.76L32.7619 41.5865C32.8404 41.603 32.9209 41.6113 33.0004 41.6113C33.0798 41.6113 33.1605 41.6031 33.2389 41.5865L41.8005 39.76V46.8883H24.2004H24.2003ZM29.7004 35.278H41.8005V37.5981L33.0004 39.474L24.2004 37.5981V35.278H29.7005H29.7004ZM30.8003 32.1118H35.2004V33.1672H30.8003V32.1118ZM42.9004 33.1672H37.4004V31.0563C37.4004 30.4734 36.9085 30.0001 36.3005 30.0001H29.7005C29.0925 30.0001 28.6004 30.4734 28.6004 31.0563V33.1672H23.1004C22.4924 33.1672 22.0005 33.6396 22.0005 34.2225V47.9446C22.0005 48.5275 22.4924 48.9999 23.1004 48.9999H42.9005C43.5085 48.9999 44.0005 48.5275 44.0005 47.9446V34.2225C44.0005 33.6396 43.5085 33.1672 42.9005 33.1672H42.9004Z" fill="#7429B8"/>
</g>
<circle cx="35.5" cy="69.5" r="2.5" fill="#FCB932"/>
<defs>
<clipPath id="clip0">
<rect width="22" height="19" fill="white" transform="translate(22 30)"/>
</clipPath>
</defs>
</svg>
