<svg width="62" height="62" viewBox="0 0 62 62" fill="none" xmlns="http://www.w3.org/2000/svg">
<g clip-path="url(#clip0)">
<path d="M61.8525 7.01141C61.5541 6.2868 60.845 5.81407 60.0623 5.81407H56.1874V1.93917C56.1874 1.15644 55.7146 0.447338 54.99 0.148971C54.2693 -0.153271 53.4362 0.0133496 52.8782 0.56746L47.0659 6.3798C46.7055 6.74404 46.5001 7.23615 46.5001 7.75151V12.7618L25.754 33.5041C24.9984 34.2597 24.9984 35.488 25.754 36.2436C26.1337 36.6233 26.6297 36.8132 27.1257 36.8132C27.6217 36.8132 28.1176 36.6234 28.4974 36.2475L49.2397 15.5013H54.2499C54.7653 15.5013 55.2574 15.2959 55.6216 14.9356L61.434 9.12323C61.9842 8.56524 62.1508 7.73601 61.8525 7.01141Z" fill="white"/>
<path d="M41.4162 28.8891L34.8095 35.519C34.4801 39.4947 31.1864 42.6256 27.1255 42.6256C22.8438 42.6256 19.3758 39.1576 19.3758 34.8758C19.3758 30.7335 22.6345 27.3779 26.7226 27.1648L33.2285 20.6356C31.3531 19.8296 29.2955 19.3762 27.1255 19.3762C18.5775 19.3762 11.626 26.3278 11.626 34.8758C11.626 43.4238 18.5775 50.3754 27.1255 50.3754C35.6736 50.3754 42.6251 43.4238 42.6251 34.8758C42.6251 32.7524 42.1911 30.7335 41.4162 28.8891Z" fill="white"/>
<path d="M49.976 20.3022L44.2644 26.0332C45.6438 28.6953 46.5002 31.6751 46.5002 34.8757C46.5002 45.5588 37.8088 54.2502 27.1257 54.2502C16.4426 54.2502 7.75125 45.5588 7.75125 34.8757C7.75125 24.1926 16.4426 15.5013 27.1257 15.5013C30.369 15.5013 33.3798 16.377 36.069 17.7913L41.7728 12.0681C37.5453 9.34792 32.5235 7.75146 27.1257 7.75146C12.1454 7.75146 0.00146484 19.8954 0.00146484 34.8757C0.00146484 49.8561 12.1454 62 27.1257 62C42.1061 62 54.25 49.8561 54.25 34.8757C54.25 29.5051 52.669 24.5143 49.976 20.3022Z" fill="white"/>
</g>
<defs>
<clipPath id="clip0">
<rect width="62" height="62" fill="white"/>
</clipPath>
</defs>
</svg>
