<svg width="44" height="45" viewBox="0 0 44 45" fill="none" xmlns="http://www.w3.org/2000/svg">
<path d="M27.1494 24.1481C27.9876 23.8359 28.5913 23.0422 28.5913 22.0919C28.5913 20.8712 27.6066 19.8817 26.3914 19.8817H21.9914C21.705 19.8817 21.4197 19.9406 21.1507 20.0523C20.6128 20.2764 20.1843 20.7071 19.9613 21.2471C19.85 21.5175 19.7914 21.8039 19.7914 22.0918V26.5119C19.7914 27.7335 20.7764 28.7221 21.9915 28.7221C22.9382 28.7221 23.7286 28.1156 24.0391 27.2732L38.0369 41.3349C38.4674 41.7665 39.0311 41.9824 39.593 41.9824C40.1568 41.9824 40.7187 41.7665 41.1492 41.3349C42.0082 40.4716 42.0082 39.073 41.1492 38.2098L27.1495 24.148L27.1494 24.1481Z" fill="#7429B8" fill-opacity="0.56"/>
<path d="M21.9914 13.2517C26.8446 13.2517 30.7931 17.2175 30.7931 22.0919C30.7931 23.3124 31.7778 24.3019 32.9931 24.3019C34.2083 24.3019 35.1931 23.3124 35.1931 22.0919C35.1931 14.7796 29.2713 8.83142 21.9914 8.83142C14.712 8.83142 8.79016 14.7796 8.79016 22.0919C8.79016 29.4041 14.712 35.3522 21.9914 35.3522C23.2066 35.3522 24.1914 34.3638 24.1914 33.1422C24.1914 31.9205 23.2066 30.9321 21.9914 30.9321C17.1388 30.9321 13.1907 26.9673 13.1907 22.0919C13.1907 17.2175 17.1388 13.2517 21.9914 13.2517V13.2517Z" fill="#7429B8" fill-opacity="0.56"/>
<path d="M42.6729 14.5745C42.6691 14.5607 42.671 14.5471 42.6672 14.5335C42.5548 14.2259 42.4139 13.9354 42.2901 13.6349C42.1682 13.3411 42.0672 13.042 41.932 12.7519C41.9167 12.7185 41.8958 12.688 41.8806 12.6549C41.6711 12.208 41.4329 11.7803 41.1968 11.3516C41.0863 11.1508 40.9872 10.9416 40.871 10.7451C40.6139 10.3106 40.3282 9.89718 40.0425 9.48348C39.9168 9.30235 39.8044 9.11212 39.673 8.93516C39.4082 8.57296 39.1168 8.23185 38.8292 7.88748C38.6521 7.67567 38.4864 7.45448 38.3016 7.24993C38.0577 6.97957 37.793 6.7297 37.5359 6.47202C37.2825 6.21602 37.0349 5.952 36.7683 5.70902C36.5626 5.52306 36.3416 5.35549 36.1302 5.17696C35.7874 4.88882 35.4483 4.59682 35.0883 4.32977C34.9131 4.19906 34.7226 4.08467 34.5416 3.95894C34.1322 3.67308 33.7207 3.38742 33.2903 3.12931C33.0884 3.0082 32.8731 2.90563 32.6655 2.79069C32.2465 2.55725 31.8275 2.3218 31.3894 2.11492C31.3551 2.09866 31.3246 2.078 31.2903 2.06195C30.9913 1.92208 30.6827 1.81512 30.3799 1.68923C30.0923 1.56964 29.8123 1.43286 29.5171 1.32492C29.4828 1.3125 29.4485 1.30502 29.4142 1.29277C28.9647 1.13056 28.5114 1.00197 28.0561 0.869958C27.818 0.800889 27.5837 0.717455 27.3437 0.65679C26.898 0.54332 26.4466 0.462976 25.997 0.378402C25.7361 0.329231 25.4771 0.265909 25.2142 0.226496C24.8294 0.168758 24.4409 0.141326 24.0523 0.104407C23.719 0.0724748 23.3876 0.0274774 23.0542 0.0110507C22.7533 -0.00385808 22.4505 0.00779786 22.1495 0.00584617C21.728 0.00243071 21.3078 -0.00846624 20.8878 0.0127313C20.6636 0.0244415 20.4402 0.0571323 20.2162 0.0756734C19.7219 0.116008 19.228 0.156235 18.7366 0.230833C18.5532 0.258753 18.3719 0.304889 18.1889 0.337634C17.6654 0.430827 17.1428 0.527598 16.6253 0.659771C16.4127 0.713714 16.204 0.788962 15.9926 0.849356C15.517 0.985975 15.0413 1.12124 14.5726 1.29098C14.5378 1.3034 14.5019 1.31104 14.4671 1.32367C14.1617 1.43519 13.8734 1.5762 13.5751 1.70019C13.2816 1.82265 12.9833 1.92599 12.6934 2.06185C12.6601 2.07735 12.6298 2.09725 12.5966 2.11308C12.1517 2.32315 11.726 2.56235 11.2991 2.79996C11.0992 2.91132 10.891 3.0108 10.6954 3.1279C10.263 3.38656 9.85136 3.67297 9.43956 3.95959C9.25903 4.08532 9.06986 4.19933 8.89348 4.32982C8.53289 4.59753 8.19347 4.89044 7.85048 5.17951C7.63967 5.35668 7.41946 5.5235 7.21577 5.70815C6.94683 5.95309 6.69808 6.21906 6.44134 6.47706C6.18648 6.73289 5.92381 6.98087 5.68196 7.2489C5.49684 7.45469 5.3298 7.67708 5.15207 7.89041C4.86521 8.23402 4.57457 8.57404 4.30882 8.93543C4.17875 9.11277 4.06465 9.30316 3.93949 9.48473C3.65495 9.89745 3.37058 10.3095 3.11362 10.7429C2.99321 10.9459 2.89093 11.1617 2.77668 11.3691C2.54411 11.7916 2.30966 12.2119 2.10371 12.6513C2.08751 12.6858 2.06717 12.7173 2.05119 12.7518C1.90984 13.0562 1.80163 13.3694 1.67458 13.6777C1.55762 13.9639 1.42334 14.2398 1.31723 14.5326C1.30525 14.5658 1.29818 14.5998 1.2862 14.6332C1.11554 15.108 0.979156 15.5901 0.84223 16.0722C0.78243 16.283 0.708489 16.4911 0.655003 16.7027C0.529088 17.2012 0.437822 17.7045 0.34742 18.2083C0.309694 18.4168 0.258421 18.6235 0.227009 18.8326C0.159059 19.2853 0.12414 19.7408 0.0849025 20.1962C0.0614789 20.4641 0.0238068 20.7311 0.0104219 20.9994C-0.00803634 21.3689 0.00356752 21.7389 0.00394532 22.1089C0.00416121 22.466 -0.00749663 22.8233 0.0100441 23.1798C0.0241307 23.4608 0.063152 23.7408 0.0881408 24.0216C0.126784 24.464 0.160193 24.9061 0.225876 25.3462C0.259392 25.5685 0.313688 25.7883 0.354058 26.0097C0.442841 26.5004 0.531193 26.991 0.653654 27.4766C0.710216 27.7005 0.788151 27.9207 0.851729 28.1436C0.98601 28.6133 1.11824 29.0834 1.28431 29.5464C1.29651 29.5806 1.3039 29.6158 1.31626 29.6501C1.42296 29.945 1.55838 30.223 1.67668 30.5114C1.80298 30.8183 1.9106 31.13 2.05119 31.4329C2.06733 31.4679 2.08811 31.4999 2.10468 31.5351C2.3075 31.9681 2.53915 32.3819 2.76772 32.7982C2.88527 33.0116 2.9904 33.2335 3.11416 33.4421C3.36977 33.8731 3.65301 34.2834 3.93625 34.694C4.06233 34.8772 4.17761 35.0696 4.30882 35.2484C4.57722 35.6133 4.87055 35.9567 5.16043 36.3036C5.33471 36.5123 5.49813 36.7306 5.67985 36.9325C5.93055 37.2104 6.20273 37.4676 6.46751 37.7326C6.71416 37.98 6.95239 38.2358 7.2107 38.4709C7.43074 38.671 7.66838 38.8515 7.89679 39.0426C8.22288 39.3158 8.54407 39.5942 8.88608 39.8483C9.0874 39.9977 9.30323 40.1289 9.51005 40.2715C9.89616 40.5382 10.28 40.8072 10.6838 41.049C10.9163 41.1885 11.1631 41.3077 11.4016 41.439C11.7915 41.6533 12.1776 41.8725 12.5823 42.064C12.6204 42.0822 12.655 42.1049 12.6934 42.1229C12.9092 42.2239 13.133 42.2947 13.3511 42.3885C13.7218 42.5471 14.0845 42.7193 14.466 42.8588C14.4957 42.8694 14.5257 42.8652 14.5555 42.8746C16.9612 43.7474 19.4634 44.2034 21.9782 44.2034C24.5153 44.2034 27.0619 43.7566 29.5171 42.8588C30.658 42.4422 31.2466 41.1732 30.8313 40.0271C30.4161 38.8789 29.1533 38.2897 28.0104 38.7062C23.8581 40.225 19.3845 40.1088 15.3221 38.4305C15.0294 38.31 14.733 38.1949 14.4502 38.0604C14.1724 37.9282 13.9081 37.7769 13.6393 37.6317C13.3867 37.4949 13.1288 37.3648 12.885 37.2169C12.673 37.0887 12.4735 36.9446 12.2679 36.8082C11.9769 36.614 11.6828 36.4238 11.4061 36.2141C11.2802 36.1196 11.1634 36.0144 11.0401 35.9164C10.6984 35.6427 10.359 35.3662 10.0407 35.0696C9.99579 35.0281 9.95483 34.9825 9.91046 34.9405C5.3896 30.6387 3.33971 24.0993 4.91972 17.7913C4.9378 17.7191 4.96409 17.6487 4.98314 17.577C5.11148 17.0897 5.25645 16.6037 5.429 16.1206C5.51778 15.8738 5.62669 15.6326 5.72654 15.3884C5.8429 15.1027 5.95322 14.8133 6.08313 14.536C6.24407 14.1939 6.42612 13.8668 6.60654 13.5383C6.70272 13.363 6.7894 13.1812 6.89092 13.0098C7.09148 12.6721 7.31341 12.3516 7.53399 12.0302C7.64026 11.8758 7.73682 11.7143 7.84783 11.5634C8.05697 11.2787 8.28614 11.012 8.51131 10.7415C8.65644 10.5672 8.79261 10.3852 8.94421 10.2168C9.13737 10.0023 9.34786 9.80524 9.55107 9.60074C9.75637 9.39435 9.95488 9.18118 10.1704 8.98526C10.3354 8.83525 10.5136 8.70096 10.6842 8.55745C10.9564 8.32878 11.2252 8.09599 11.5118 7.88342C11.6569 7.77569 11.8125 7.68196 11.9611 7.57841C12.2862 7.35283 12.6108 7.12632 12.9527 6.92161C13.1157 6.82397 13.2886 6.74135 13.4552 6.64892C13.7898 6.46296 14.124 6.27582 14.4729 6.11014C14.7274 5.99 14.9933 5.88895 15.2546 5.78031C15.5233 5.66819 15.7896 5.54805 16.0616 5.44971C16.402 5.3273 16.747 5.23004 17.0911 5.12925C17.2989 5.06826 17.5046 4.99589 17.7141 4.94276C18.0632 4.85412 18.4158 4.79215 18.7676 4.72536C18.9829 4.68465 19.1964 4.63239 19.4128 4.60002C19.7229 4.55318 20.0344 4.53177 20.3455 4.50189C20.6099 4.47685 20.8734 4.44085 21.1385 4.42778C21.3836 4.41575 21.6285 4.42534 21.8737 4.42361C22.2068 4.42149 22.5402 4.41212 22.8735 4.42936C23.0525 4.43814 23.2297 4.46454 23.4068 4.47923C23.8049 4.51198 24.2011 4.54369 24.5972 4.60403C24.7344 4.62469 24.8696 4.65928 25.0068 4.68362C25.4372 4.75963 25.8658 4.84013 26.2924 4.94899C26.4353 4.98553 26.5763 5.03606 26.7191 5.07623C27.1267 5.19122 27.5343 5.30989 27.9362 5.45492C28.1801 5.54312 28.4181 5.65193 28.6581 5.75125C28.9457 5.86895 29.2353 5.98046 29.5133 6.11193C29.8543 6.27376 30.18 6.45668 30.5076 6.63791C30.6809 6.73452 30.8619 6.82115 31.0333 6.92335C31.3704 7.12556 31.6905 7.34947 32.0124 7.57218C32.1647 7.67778 32.3228 7.7738 32.4714 7.88401C32.7571 8.09577 33.0256 8.32808 33.298 8.55599C33.4676 8.70004 33.6466 8.83492 33.8123 8.98531C34.0276 9.18042 34.2256 9.39267 34.4294 9.59792C34.6351 9.80339 34.8447 10.0018 35.0389 10.2178C35.1894 10.3837 35.3227 10.5635 35.4675 10.7354C35.6942 11.008 35.9246 11.2772 36.1361 11.5644C36.2447 11.7136 36.3417 11.8735 36.4465 12.0264C36.6675 12.3492 36.8903 12.671 37.0922 13.0099C37.1932 13.1813 37.2808 13.363 37.3761 13.5383C37.557 13.8668 37.7399 14.194 37.8999 14.5361C38.0294 14.8133 38.1399 15.1028 38.2561 15.3884C39.9284 19.4708 40.0446 23.963 38.5322 28.1394C38.117 29.2855 38.7056 30.5545 39.8465 30.9711C40.9874 31.3876 42.2503 30.7983 42.6655 29.6501C44.4521 24.7246 44.435 19.4423 42.6731 14.5746L42.6729 14.5745Z" fill="#7429B8" fill-opacity="0.56"/>
</svg>
