<svg width="71" height="74" viewBox="0 0 71 74" fill="none" xmlns="http://www.w3.org/2000/svg">
<path d="M62.344 37.4193C63.6299 53.7179 51.4597 67.973 35.1611 69.2589" stroke="#FCB932" stroke-width="3" stroke-linecap="round" stroke-linejoin="round"/>
<path d="M3.2557 36.0627C4.22423 19.7422 18.2398 7.2969 34.5604 8.26543C50.8809 9.23396 63.3262 23.2495 62.3577 39.5701" stroke="#FCB932" stroke-width="3" stroke-linecap="round" stroke-linejoin="round"/>
<circle cx="35.4998" cy="69.5" r="2.5" fill="#FCB932"/>
<path d="M39.068 28.8012C36.9839 28.4277 35.0647 27.2896 34.1061 26.6444C33.4799 26.2228 32.7515 26 31.9997 26C31.2479 26 30.5196 26.2228 29.8933 26.6444C28.9348 27.2896 27.0156 28.4278 24.9315 28.8013C23.6972 29.0224 22.8013 30.0904 22.8013 31.3406V36.5273C22.8013 38.2408 23.2806 39.9111 24.2261 41.4919C24.9657 42.7285 25.9905 43.9105 27.272 45.0049C29.4268 46.845 31.5604 47.8046 31.6502 47.8445L31.9997 48L32.3493 47.8445C32.4391 47.8046 34.5727 46.845 36.7275 45.0049C38.0089 43.9105 39.0338 42.7285 39.7735 41.4919C40.7189 39.911 41.1983 38.2408 41.1983 36.5273V31.3405C41.1983 30.0904 40.3024 29.0224 39.068 28.8012ZM39.4788 36.5273C39.4788 39.0817 38.1883 41.4848 35.6431 43.6697C34.1636 44.9398 32.6615 45.7676 31.9998 46.1036C30.4786 45.3307 24.5206 41.9555 24.5206 36.5273V31.3405C24.5206 30.924 24.8209 30.5677 25.2348 30.4936C27.6289 30.0645 29.7827 28.7914 30.8534 28.0707C31.1949 27.8409 31.5913 27.7194 31.9997 27.7194C32.4081 27.7194 32.8045 27.8409 33.146 28.0707C34.2167 28.7914 36.3705 30.0646 38.7646 30.4937C39.1784 30.5678 39.4788 30.924 39.4788 31.3406V36.5273Z" fill="#7429B8"/>
<path d="M30.6682 38.6513L27.73 35.9006L26.5549 37.1557L30.7791 41.1104L37.4983 33.5756L36.2151 32.4313L30.6682 38.6513Z" fill="#FCB932"/>
</svg>
